<svg width="129" height="36" viewBox="0 0 129 36" fill="none" xmlns="http://www.w3.org/2000/svg">
<path d="M1.34326 35V11.3369H6.76855V35H1.34326ZM0.98291 3.80957C0.98291 3.36914 1.06299 2.9554 1.22314 2.56836C1.3833 2.18132 1.60352 1.84766 1.88379 1.56738C2.16406 1.28711 2.49105 1.06689 2.86475 0.906738C3.23844 0.733236 3.63883 0.646484 4.06592 0.646484C4.50635 0.646484 4.91341 0.733236 5.28711 0.906738C5.67415 1.06689 6.00781 1.29378 6.28809 1.5874C6.56836 1.86768 6.78857 2.20133 6.94873 2.58838C7.10889 2.97542 7.18896 3.38249 7.18896 3.80957C7.18896 4.25 7.10221 4.66374 6.92871 5.05078C6.76855 5.43783 6.54167 5.77148 6.24805 6.05176C5.96777 6.33203 5.63411 6.55225 5.24707 6.7124C4.87337 6.87256 4.47965 6.95264 4.06592 6.95264C3.61214 6.95264 3.1984 6.87256 2.82471 6.7124C2.45101 6.5389 2.12402 6.31201 1.84375 6.03174C1.57682 5.73812 1.36328 5.40446 1.20312 5.03076C1.05632 4.64372 0.98291 4.23665 0.98291 3.80957ZM18.1997 14.7603C18.5601 14.1997 19.0072 13.6792 19.541 13.1987C20.0882 12.7049 20.6888 12.2778 21.3428 11.9175C22.0101 11.5571 22.7174 11.2769 23.4648 11.0767C24.2122 10.8631 24.9663 10.7563 25.7271 10.7563C27.1685 10.7563 28.3963 10.9632 29.4106 11.377C30.425 11.7907 31.2591 12.3979 31.9131 13.1987C32.5671 13.9995 33.0409 14.9938 33.3345 16.1816C33.6414 17.3695 33.7949 18.7375 33.7949 20.2856V35H28.2896V20.0254C28.2896 18.1702 27.9826 16.7956 27.3687 15.9014C26.7681 14.9938 25.7738 14.54 24.3857 14.54C23.8252 14.54 23.2513 14.6335 22.6641 14.8203C22.0768 15.0072 21.5229 15.2407 21.0024 15.521C20.4819 15.8013 20.0148 16.1082 19.6011 16.4419C19.1873 16.7756 18.867 17.0825 18.6401 17.3628V35H13.1348V11.3369H17.2788L18.1997 14.7603ZM53.374 11.3369V13.8794H47.0078V35H41.4824V13.8794H36.978V11.3369H41.4824C41.4824 9.53516 41.6426 7.98031 41.9629 6.67236C42.2965 5.36442 42.8504 4.29004 43.6245 3.44922C44.4119 2.59505 45.4463 1.9611 46.7275 1.54736C48.0088 1.13363 49.6037 0.926758 51.5122 0.926758C52.9136 0.926758 54.1214 1.02686 55.1357 1.22705C56.1634 1.42725 57.0376 1.73421 57.7583 2.14795C58.4924 2.54834 59.0863 3.06217 59.54 3.68945C59.9938 4.31673 60.3475 5.06413 60.6011 5.93164C60.8547 6.78581 61.0282 7.76676 61.1216 8.87451C61.215 9.96891 61.2617 11.1968 61.2617 12.5581V35H55.7363V11.0366C55.7363 10.4894 55.743 9.95557 55.7563 9.43506C55.783 8.9012 55.7964 8.40739 55.7964 7.95361C55.7964 7.32633 55.7563 6.80583 55.6763 6.39209C55.5962 5.97835 55.4093 5.65137 55.1157 5.41113C54.8221 5.1709 54.3883 5.00407 53.8145 4.91064C53.2539 4.81722 52.4865 4.77051 51.5122 4.77051C50.5246 4.77051 49.7305 4.81722 49.1299 4.91064C48.5426 5.00407 48.0889 5.15755 47.7686 5.37109C47.4482 5.58464 47.2347 5.87158 47.1279 6.23193C47.0212 6.57894 46.9678 7.0127 46.9678 7.5332C46.9678 7.80013 46.9744 8.10042 46.9878 8.43408C47.0011 8.76774 47.0078 9.12809 47.0078 9.51514V11.3369H53.374ZM72.6929 26.2114C72.6929 27.0656 72.7596 27.8263 72.8931 28.4937C73.0265 29.1476 73.2467 29.7015 73.5537 30.1553C73.8607 30.5957 74.2611 30.936 74.7549 31.1763C75.2487 31.4032 75.8493 31.5166 76.5566 31.5166C77.5576 31.5166 78.4919 31.3364 79.3594 30.9761C80.2269 30.6157 81.1144 30.0018 82.022 29.1343V11.3369H87.5474V35H83.5835L82.5225 31.4165C82.2422 31.9771 81.8818 32.5042 81.4414 32.998C81.0143 33.4919 80.5138 33.9256 79.9399 34.2993C79.3794 34.6597 78.7521 34.9399 78.0581 35.1401C77.3774 35.3537 76.6367 35.4604 75.8359 35.4604C73.0065 35.4604 70.8644 34.693 69.4097 33.1582C67.9549 31.6234 67.2275 29.221 67.2275 25.9512V11.3369H72.6929V26.2114ZM98.8584 15.1606C99.2588 14.52 99.6792 13.9528 100.12 13.459C100.573 12.9652 101.061 12.5514 101.581 12.2178C102.115 11.8841 102.695 11.6305 103.323 11.457C103.95 11.2835 104.644 11.1968 105.405 11.1968C105.832 11.1968 106.259 11.2168 106.686 11.2568V15.8413C106.499 15.7612 106.206 15.7078 105.805 15.6812C105.405 15.6411 104.971 15.6211 104.504 15.6211C103.543 15.6211 102.602 15.8613 101.681 16.3418C100.774 16.8089 99.9194 17.3895 99.1187 18.0835V35H93.6133V11.3369H98.1377L98.8584 15.1606ZM118.498 14.54C117.176 14.54 115.868 14.7269 114.574 15.1006C113.279 15.4743 112.078 16.0015 110.97 16.6821L109.429 13.1987C110.123 12.7983 110.81 12.4447 111.491 12.1377C112.185 11.8307 112.899 11.5771 113.633 11.377C114.38 11.1768 115.161 11.0233 115.975 10.9165C116.789 10.8097 117.67 10.7563 118.618 10.7563C120.54 10.7563 122.121 10.9832 123.362 11.437C124.604 11.8774 125.584 12.5581 126.305 13.479C127.039 14.3866 127.546 15.5343 127.827 16.9224C128.107 18.3104 128.247 19.9386 128.247 21.8071V35H124.063L123.282 31.6768C122.401 33.0114 121.374 33.979 120.199 34.5796C119.025 35.1668 117.643 35.4604 116.055 35.4604C114.801 35.4604 113.673 35.3003 112.672 34.98C111.671 34.6597 110.817 34.1792 110.109 33.5386C109.415 32.8979 108.882 32.1038 108.508 31.1562C108.134 30.2087 107.947 29.1076 107.947 27.853C107.947 26.5851 108.188 25.484 108.668 24.5498C109.148 23.6022 109.816 22.8215 110.67 22.2075C111.524 21.5802 112.538 21.1131 113.713 20.8062C114.901 20.4992 116.202 20.3457 117.617 20.3457C118.297 20.3457 118.918 20.3724 119.479 20.4258C120.052 20.4792 120.56 20.5459 121 20.626C121.44 20.6927 121.807 20.7594 122.101 20.8262C122.408 20.8929 122.628 20.9329 122.762 20.9463C122.762 19.9587 122.735 19.0711 122.682 18.2837C122.628 17.4829 122.468 16.8089 122.201 16.2617C121.934 15.7012 121.514 15.2741 120.94 14.9805C120.366 14.6868 119.552 14.54 118.498 14.54ZM117.477 31.6567C118.464 31.6567 119.385 31.4432 120.239 31.0161C121.107 30.589 121.948 29.9484 122.762 29.0942V23.749C122.655 23.749 122.475 23.7357 122.221 23.709C121.968 23.6689 121.674 23.6356 121.34 23.6089C121.02 23.5688 120.686 23.5355 120.339 23.5088C120.006 23.4821 119.712 23.4688 119.458 23.4688C118.498 23.4688 117.643 23.5288 116.896 23.6489C116.162 23.769 115.535 23.9826 115.014 24.2896C114.507 24.5832 114.12 24.9902 113.853 25.5107C113.599 26.0179 113.473 26.6652 113.473 27.4526C113.473 28.9608 113.826 30.0418 114.534 30.6958C115.254 31.3364 116.235 31.6567 117.477 31.6567Z" fill="white"/>
</svg>
