<svg width="200" height="55" viewBox="0 0 200 55" fill="none" xmlns="http://www.w3.org/2000/svg">
<path d="M1.46875 54V17.0625H9.9375V54H1.46875ZM0.90625 5.3125C0.90625 4.625 1.03125 3.97917 1.28125 3.375C1.53125 2.77083 1.875 2.25 2.3125 1.8125C2.75 1.375 3.26042 1.03125 3.84375 0.78125C4.42708 0.510417 5.05208 0.375 5.71875 0.375C6.40625 0.375 7.04167 0.510417 7.625 0.78125C8.22917 1.03125 8.75 1.38542 9.1875 1.84375C9.625 2.28125 9.96875 2.80208 10.2188 3.40625C10.4688 4.01042 10.5938 4.64583 10.5938 5.3125C10.5938 6 10.4583 6.64583 10.1875 7.25C9.9375 7.85417 9.58333 8.375 9.125 8.8125C8.6875 9.25 8.16667 9.59375 7.5625 9.84375C6.97917 10.0938 6.36458 10.2188 5.71875 10.2188C5.01042 10.2188 4.36458 10.0938 3.78125 9.84375C3.19792 9.57292 2.6875 9.21875 2.25 8.78125C1.83333 8.32292 1.5 7.80208 1.25 7.21875C1.02083 6.61458 0.90625 5.97917 0.90625 5.3125ZM27.7812 22.4062C28.3438 21.5312 29.0417 20.7188 29.875 19.9688C30.7292 19.1979 31.6667 18.5312 32.6875 17.9688C33.7292 17.4062 34.8333 16.9688 36 16.6562C37.1667 16.3229 38.3438 16.1562 39.5312 16.1562C41.7812 16.1562 43.6979 16.4792 45.2812 17.125C46.8646 17.7708 48.1667 18.7188 49.1875 19.9688C50.2083 21.2188 50.9479 22.7708 51.4062 24.625C51.8854 26.4792 52.125 28.6146 52.125 31.0312V54H43.5312V30.625C43.5312 27.7292 43.0521 25.5833 42.0938 24.1875C41.1562 22.7708 39.6042 22.0625 37.4375 22.0625C36.5625 22.0625 35.6667 22.2083 34.75 22.5C33.8333 22.7917 32.9688 23.1562 32.1562 23.5938C31.3438 24.0312 30.6146 24.5104 29.9688 25.0312C29.3229 25.5521 28.8229 26.0312 28.4688 26.4688V54H19.875V17.0625H26.3438L27.7812 22.4062ZM82.6875 17.0625V21.0312H72.75V54H64.125V21.0312H57.0938V17.0625H64.125C64.125 14.25 64.375 11.8229 64.875 9.78125C65.3958 7.73958 66.2604 6.0625 67.4688 4.75C68.6979 3.41667 70.3125 2.42708 72.3125 1.78125C74.3125 1.13542 76.8021 0.8125 79.7812 0.8125C81.9688 0.8125 83.8542 0.96875 85.4375 1.28125C87.0417 1.59375 88.4062 2.07292 89.5312 2.71875C90.6771 3.34375 91.6042 4.14583 92.3125 5.125C93.0208 6.10417 93.5729 7.27083 93.9688 8.625C94.3646 9.95833 94.6354 11.4896 94.7812 13.2188C94.9271 14.9271 95 16.8438 95 18.9688V54H86.375V16.5938C86.375 15.7396 86.3854 14.9062 86.4062 14.0938C86.4479 13.2604 86.4688 12.4896 86.4688 11.7812C86.4688 10.8021 86.4062 9.98958 86.2812 9.34375C86.1562 8.69792 85.8646 8.1875 85.4062 7.8125C84.9479 7.4375 84.2708 7.17708 83.375 7.03125C82.5 6.88542 81.3021 6.8125 79.7812 6.8125C78.2396 6.8125 77 6.88542 76.0625 7.03125C75.1458 7.17708 74.4375 7.41667 73.9375 7.75C73.4375 8.08333 73.1042 8.53125 72.9375 9.09375C72.7708 9.63542 72.6875 10.3125 72.6875 11.125C72.6875 11.5417 72.6979 12.0104 72.7188 12.5312C72.7396 13.0521 72.75 13.6146 72.75 14.2188V17.0625H82.6875ZM112.844 40.2812C112.844 41.6146 112.948 42.8021 113.156 43.8438C113.365 44.8646 113.708 45.7292 114.188 46.4375C114.667 47.125 115.292 47.6562 116.062 48.0312C116.833 48.3854 117.771 48.5625 118.875 48.5625C120.438 48.5625 121.896 48.2812 123.25 47.7188C124.604 47.1562 125.99 46.1979 127.406 44.8438V17.0625H136.031V54H129.844L128.188 48.4062C127.75 49.2812 127.188 50.1042 126.5 50.875C125.833 51.6458 125.052 52.3229 124.156 52.9062C123.281 53.4688 122.302 53.9062 121.219 54.2188C120.156 54.5521 119 54.7188 117.75 54.7188C113.333 54.7188 109.99 53.5208 107.719 51.125C105.448 48.7292 104.312 44.9792 104.312 39.875V17.0625H112.844V40.2812ZM153.688 23.0312C154.312 22.0312 154.969 21.1458 155.656 20.375C156.365 19.6042 157.125 18.9583 157.938 18.4375C158.771 17.9167 159.677 17.5208 160.656 17.25C161.635 16.9792 162.719 16.8438 163.906 16.8438C164.573 16.8438 165.24 16.875 165.906 16.9375V24.0938C165.615 23.9688 165.156 23.8854 164.531 23.8438C163.906 23.7812 163.229 23.75 162.5 23.75C161 23.75 159.531 24.125 158.094 24.875C156.677 25.6042 155.344 26.5104 154.094 27.5938V54H145.5V17.0625H152.562L153.688 23.0312ZM184.344 22.0625C182.281 22.0625 180.24 22.3542 178.219 22.9375C176.198 23.5208 174.323 24.3438 172.594 25.4062L170.188 19.9688C171.271 19.3438 172.344 18.7917 173.406 18.3125C174.49 17.8333 175.604 17.4375 176.75 17.125C177.917 16.8125 179.135 16.5729 180.406 16.4062C181.677 16.2396 183.052 16.1562 184.531 16.1562C187.531 16.1562 190 16.5104 191.938 17.2188C193.875 17.9062 195.406 18.9688 196.531 20.4062C197.677 21.8229 198.469 23.6146 198.906 25.7812C199.344 27.9479 199.562 30.4896 199.562 33.4062V54H193.031L191.812 48.8125C190.438 50.8958 188.833 52.4062 187 53.3438C185.167 54.2604 183.01 54.7188 180.531 54.7188C178.573 54.7188 176.812 54.4688 175.25 53.9688C173.688 53.4688 172.354 52.7188 171.25 51.7188C170.167 50.7188 169.333 49.4792 168.75 48C168.167 46.5208 167.875 44.8021 167.875 42.8438C167.875 40.8646 168.25 39.1458 169 37.6875C169.75 36.2083 170.792 34.9896 172.125 34.0312C173.458 33.0521 175.042 32.3229 176.875 31.8438C178.729 31.3646 180.76 31.125 182.969 31.125C184.031 31.125 185 31.1667 185.875 31.25C186.771 31.3333 187.562 31.4375 188.25 31.5625C188.938 31.6667 189.51 31.7708 189.969 31.875C190.448 31.9792 190.792 32.0417 191 32.0625C191 30.5208 190.958 29.1354 190.875 27.9062C190.792 26.6562 190.542 25.6042 190.125 24.75C189.708 23.875 189.052 23.2083 188.156 22.75C187.26 22.2917 185.99 22.0625 184.344 22.0625ZM182.75 48.7812C184.292 48.7812 185.729 48.4479 187.062 47.7812C188.417 47.1146 189.729 46.1146 191 44.7812V36.4375C190.833 36.4375 190.552 36.4167 190.156 36.375C189.76 36.3125 189.302 36.2604 188.781 36.2188C188.281 36.1562 187.76 36.1042 187.219 36.0625C186.698 36.0208 186.24 36 185.844 36C184.344 36 183.01 36.0938 181.844 36.2812C180.698 36.4688 179.719 36.8021 178.906 37.2812C178.115 37.7396 177.51 38.375 177.094 39.1875C176.698 39.9792 176.5 40.9896 176.5 42.2188C176.5 44.5729 177.052 46.2604 178.156 47.2812C179.281 48.2812 180.812 48.7812 182.75 48.7812Z" fill="#5771C3"/>
</svg>
