<svg width="18" height="18" viewBox="0 0 18 18" fill="none" xmlns="http://www.w3.org/2000/svg">
<path d="M16.7143 10.8482V16.2724H5.14283V10.8482H16.7143ZM18 9.76343H3.85712V17.3572H18V9.76343Z" fill="#5771C3"/>
<path d="M10.9286 11.933C11.9938 11.933 12.8572 12.6614 12.8572 13.5602C12.8572 14.459 11.9938 15.1874 10.9286 15.1874C9.86337 15.1874 9.00001 14.459 9.00001 13.5602C9.00001 12.6614 9.86337 11.933 10.9286 11.933ZM10.9286 10.8481C9.15622 10.8481 7.71429 12.0648 7.71429 13.5602C7.71429 15.0556 9.15622 16.2723 10.9286 16.2723C12.7009 16.2723 14.1429 15.0556 14.1429 13.5602C14.1429 12.0648 12.7009 10.8481 10.9286 10.8481Z" fill="#5771C3"/>
<path d="M14.1429 2.16964V1.62723C14.1429 0.433928 12.9921 0 12.2143 0H5.78571C4.37143 0 3.85714 0.970915 3.85714 1.62723V2.16964H0V13.0179H5.14286V11.933H1.28571V6.50893H3.85714V7.59375H5.14286V6.50893H12.8571V7.59375H14.1429V6.50893H16.7143V8.67857H18V2.16964H14.1429ZM5.14286 1.63266C5.14929 1.38315 5.265 1.08482 5.78571 1.08482H12.2079C12.5036 1.09025 12.8571 1.18788 12.8571 1.62723V2.16964H5.14286V1.63266ZM16.7143 5.42411H14.1429V4.33928H12.8571V5.42411H5.14286V4.33928H3.85714V5.42411H1.28571V3.25446H16.7143V5.42411Z" fill="#5771C3"/>
</svg>
