<svg width="38" height="39" viewBox="0 0 38 39" fill="none" xmlns="http://www.w3.org/2000/svg">
<path d="M19.0062 0C11.0739 0 8.75398 0.00840071 8.30303 0.046804C6.67518 0.185716 5.66223 0.448838 4.55869 1.01289C3.70823 1.44642 3.03751 1.94896 2.37556 2.65342C1.17002 3.93813 0.439386 5.51867 0.174897 7.39743C0.0463058 8.3095 0.00889747 8.49552 0.0012989 13.1543C-0.00162363 14.7072 0.0012989 16.751 0.0012989 19.4924C0.0012989 27.629 0.0100665 30.0082 0.0480593 30.4703C0.179573 32.0964 0.427988 33.1195 0.954043 34.2386C1.95939 36.3808 3.87949 37.9889 6.14153 38.589C6.92477 38.796 7.78983 38.91 8.90039 38.964C9.37092 38.985 14.1668 39 18.9656 39C23.7644 39 28.5632 38.994 29.022 38.97C30.3079 38.9079 31.0546 38.805 31.8802 38.586C33.0018 38.2907 34.0471 37.7476 34.9431 36.9947C35.8391 36.2417 36.5642 35.297 37.0677 34.2266C37.5835 33.1345 37.8451 32.0724 37.9635 30.5312C37.9892 30.1952 38 24.8376 38 19.4872C38 14.136 37.9883 8.78834 37.9626 8.45232C37.8428 6.88618 37.5812 5.83309 37.0487 4.72C36.6118 3.80882 36.1267 3.12836 35.4223 2.43261C34.1656 1.2001 32.6284 0.450038 30.7963 0.178815C29.9087 0.047104 29.7319 0.00810069 25.1903 0H19.0062Z" fill="url(#paint0_radial_1122_927)"/>
<path d="M19.0062 0C11.0739 0 8.75398 0.00840071 8.30303 0.046804C6.67518 0.185716 5.66223 0.448838 4.55869 1.01289C3.70823 1.44642 3.03751 1.94896 2.37556 2.65342C1.17002 3.93813 0.439386 5.51867 0.174897 7.39743C0.0463058 8.3095 0.00889747 8.49552 0.0012989 13.1543C-0.00162363 14.7072 0.0012989 16.751 0.0012989 19.4924C0.0012989 27.629 0.0100665 30.0082 0.0480593 30.4703C0.179573 32.0964 0.427988 33.1195 0.954043 34.2386C1.95939 36.3808 3.87949 37.9889 6.14153 38.589C6.92477 38.796 7.78983 38.91 8.90039 38.964C9.37092 38.985 14.1668 39 18.9656 39C23.7644 39 28.5632 38.994 29.022 38.97C30.3079 38.9079 31.0546 38.805 31.8802 38.586C33.0018 38.2907 34.0471 37.7476 34.9431 36.9947C35.8391 36.2417 36.5642 35.297 37.0677 34.2266C37.5835 33.1345 37.8451 32.0724 37.9635 30.5312C37.9892 30.1952 38 24.8376 38 19.4872C38 14.136 37.9883 8.78834 37.9626 8.45232C37.8428 6.88618 37.5812 5.83309 37.0487 4.72C36.6118 3.80882 36.1267 3.12836 35.4223 2.43261C34.1656 1.2001 32.6284 0.450038 30.7963 0.178815C29.9087 0.047104 29.7319 0.00810069 25.1903 0H19.0062Z" fill="url(#paint1_radial_1122_927)"/>
<path d="M18.9974 5.10046C15.1876 5.10046 14.7095 5.11757 13.2132 5.18747C11.7197 5.25768 10.7004 5.5004 9.80841 5.85653C8.88577 6.22436 8.10312 6.7164 7.32339 7.51717C6.54307 8.31764 6.06378 9.1211 5.70431 10.068C5.35653 10.984 5.1198 12.0308 5.05258 13.5633C4.98595 15.0994 4.96841 15.5906 4.96841 19.5017C4.96841 23.4128 4.98537 23.9022 5.05317 25.4383C5.12185 26.9714 5.35828 28.0179 5.70489 28.9336C6.06349 29.8808 6.54278 30.6842 7.3228 31.4847C8.10224 32.2858 8.88489 32.779 9.80695 33.1468C10.6995 33.503 11.7192 33.7457 13.2123 33.8159C14.7086 33.8858 15.1864 33.9029 18.996 33.9029C22.8061 33.9029 23.2827 33.8858 24.7791 33.8159C26.2725 33.7457 27.293 33.503 28.1856 33.1468C29.1079 32.779 29.8894 32.2858 30.6688 31.4847C31.4491 30.6842 31.9284 29.8808 32.2879 28.9339C32.6328 28.0179 32.8695 26.9711 32.9396 25.4386C33.0068 23.9025 33.0244 23.4128 33.0244 19.5017C33.0244 15.5906 33.0068 15.0997 32.9396 13.5636C32.8695 12.0304 32.6328 10.984 32.2879 10.0683C31.9284 9.1211 31.4491 8.31764 30.6688 7.51717C29.8885 6.7161 29.1082 6.22406 28.1847 5.85653C27.2904 5.5004 26.2704 5.25768 24.777 5.18747C23.2807 5.11757 22.8043 5.10046 18.9933 5.10046H18.9974ZM17.739 7.69568C18.1125 7.69508 18.5292 7.69568 18.9974 7.69568C22.7429 7.69568 23.1869 7.70948 24.666 7.77849C26.0337 7.8427 26.776 8.07732 27.2705 8.27443C27.9252 8.53545 28.3919 8.84748 28.8826 9.35152C29.3736 9.85557 29.6775 10.3356 29.9324 11.0077C30.1244 11.5147 30.3532 12.2768 30.4154 13.6809C30.4827 15.199 30.4973 15.6551 30.4973 19.4984C30.4973 23.3417 30.4827 23.7977 30.4154 25.3159C30.3529 26.72 30.1244 27.4821 29.9324 27.9891C29.6781 28.6612 29.3736 29.1397 28.8826 29.6434C28.3916 30.1475 27.9255 30.4595 27.2705 30.7205C26.7766 30.9185 26.0337 31.1526 24.666 31.2168C23.1872 31.2858 22.7429 31.3008 18.9974 31.3008C15.2516 31.3008 14.8077 31.2858 13.3289 31.2168C11.9611 31.152 11.2188 30.9173 10.724 30.7202C10.0694 30.4592 9.60179 30.1472 9.1108 29.6431C8.61982 29.1391 8.31588 28.6603 8.06103 27.9879C7.86902 27.4809 7.64019 26.7188 7.57794 25.3147C7.51072 23.7965 7.49728 23.3405 7.49728 19.4948C7.49728 15.6491 7.51072 15.1954 7.57794 13.6773C7.64048 12.2732 7.86902 11.5111 8.06103 11.0035C8.31529 10.3314 8.61982 9.85137 9.1108 9.34732C9.60179 8.84328 10.0694 8.53125 10.724 8.26963C11.2185 8.07162 11.9611 7.8376 13.3289 7.77309C14.623 7.71309 15.1245 7.69508 17.739 7.69208V7.69568ZM26.4855 10.0869C26.1526 10.0869 25.8271 10.1883 25.5502 10.3782C25.2734 10.5681 25.0576 10.838 24.9302 11.1538C24.8028 11.4696 24.7695 11.8172 24.8345 12.1524C24.8995 12.4876 25.0599 12.7956 25.2954 13.0372C25.5309 13.2789 25.8309 13.4434 26.1575 13.51C26.4841 13.5767 26.8225 13.5423 27.1301 13.4115C27.4377 13.2806 27.7006 13.059 27.8855 12.7747C28.0704 12.4904 28.169 12.1563 28.1689 11.8144C28.1689 10.8604 27.4149 10.0863 26.4855 10.0863V10.0869ZM18.9974 12.1061C15.019 12.1061 11.7934 15.4174 11.7934 19.5017C11.7934 23.5859 15.019 26.8958 18.9974 26.8958C22.9759 26.8958 26.2006 23.5859 26.2006 19.5017C26.2006 15.4174 22.9756 12.1061 18.9971 12.1061H18.9974ZM18.9974 14.7013C21.5798 14.7013 23.6735 16.8504 23.6735 19.5017C23.6735 22.1527 21.5798 24.3021 18.9974 24.3021C16.4148 24.3021 14.3214 22.1527 14.3214 19.5017C14.3214 16.8504 16.4148 14.7013 18.9974 14.7013V14.7013Z" fill="white"/>
<defs>
<radialGradient id="paint0_radial_1122_927" cx="0" cy="0" r="1" gradientUnits="userSpaceOnUse" gradientTransform="translate(10.0938 42.0038) rotate(-90) scale(38.6519 35.0275)">
<stop stop-color="#FFDD55"/>
<stop offset="0.1" stop-color="#FFDD55"/>
<stop offset="0.5" stop-color="#FF543E"/>
<stop offset="1" stop-color="#C837AB"/>
</radialGradient>
<radialGradient id="paint1_radial_1122_927" cx="0" cy="0" r="1" gradientUnits="userSpaceOnUse" gradientTransform="translate(-6.3652 2.80949) rotate(78.9637) scale(17.2607 69.4604)">
<stop stop-color="#3771C8"/>
<stop offset="0.128" stop-color="#3771C8"/>
<stop offset="1" stop-color="#6600FF" stop-opacity="0"/>
</radialGradient>
</defs>
</svg>
