<svg width="18" height="18" viewBox="0 0 18 18" fill="none" xmlns="http://www.w3.org/2000/svg">
<path d="M12.001 9V8.99925C12.001 8.30532 11.7603 7.63287 11.3201 7.09647C10.8799 6.56006 10.2673 6.19288 9.5867 6.0575C8.90611 5.92211 8.19963 6.02689 7.58763 6.35399C6.97563 6.68108 6.49598 7.21025 6.23039 7.85134C5.9648 8.49243 5.9297 9.20577 6.13109 9.86984C6.33247 10.5339 6.75787 11.1076 7.33481 11.4932C7.91174 11.8788 8.60453 12.0524 9.29512 11.9845C9.98571 11.9165 10.6314 11.6113 11.1221 11.1206C11.4006 10.8515 11.6219 10.5289 11.7729 10.1723C11.9239 9.81568 12.0015 9.43227 12.001 9.04499L12.0002 8.99775L12.001 9ZM13.6207 9C13.6171 10.0637 13.2451 11.0932 12.5678 11.9134C11.8906 12.7337 10.9501 13.2939 9.90636 13.4988C8.86261 13.7036 7.78011 13.5405 6.84309 13.0371C5.90607 12.5337 5.17244 11.7212 4.76703 10.7378C4.36163 9.75444 4.30952 8.66096 4.61956 7.64348C4.9296 6.62599 5.58263 5.74738 6.46753 5.15717C7.35243 4.56695 8.4145 4.3016 9.47301 4.40628C10.5315 4.51095 11.5211 4.97919 12.2732 5.73129C12.7003 6.14576 13.0398 6.64186 13.2714 7.19012C13.503 7.73837 13.6221 8.32759 13.6215 8.92276L13.6207 9.0045V9.00075V9ZM14.8858 4.1963V4.1978C14.8858 4.44763 14.7993 4.68975 14.6409 4.88292C14.4824 5.07609 14.2619 5.20835 14.0169 5.25716C13.7719 5.30597 13.5176 5.26832 13.2972 5.15061C13.0768 5.03291 12.9041 4.84244 12.8084 4.61166C12.7128 4.38087 12.7001 4.12406 12.7725 3.88497C12.845 3.64588 12.9981 3.43931 13.2058 3.30046C13.4135 3.16162 13.6629 3.09908 13.9115 3.1235C14.1602 3.14793 14.3926 3.25781 14.5693 3.43443C14.7613 3.62265 14.8805 3.8851 14.8805 4.1753V4.19705L14.8858 4.1963ZM9.00675 1.61673L8.11065 1.61073C7.56774 1.60673 7.15556 1.60673 6.8741 1.61073C6.59265 1.61473 6.21571 1.62648 5.74329 1.64598C5.30462 1.66097 4.88843 1.70447 4.48125 1.77345L4.53599 1.76596C4.2173 1.81845 3.93459 1.89343 3.66389 1.99317L3.69613 1.98267C3.3137 2.1364 2.96593 2.36516 2.67332 2.65545C2.38071 2.94574 2.14919 3.29169 1.99242 3.67289L1.98492 3.69313C1.88867 3.95658 1.81737 4.22847 1.77195 4.50525L1.76821 4.53299C1.70151 4.92702 1.66167 5.32512 1.64897 5.72455L1.64823 5.74029C1.62873 6.21321 1.61698 6.59015 1.61298 6.8711C1.60898 7.15206 1.60898 7.56424 1.61298 8.10765C1.61698 8.65106 1.61898 8.94976 1.61898 9.00375C1.61898 9.05774 1.61698 9.35644 1.61298 9.89985C1.60898 10.4433 1.60898 10.8554 1.61298 11.1364C1.61698 11.4173 1.62873 11.7943 1.64823 12.2672C1.66322 12.7059 1.70672 13.1221 1.7757 13.5292L1.76821 13.4745C1.8207 13.7932 1.89568 14.0759 1.99542 14.3466L1.98492 14.3144C2.13865 14.6968 2.36741 15.0446 2.6577 15.3372C2.94799 15.6298 3.29394 15.8613 3.67514 16.0181L3.69538 16.0256C3.93384 16.1148 4.21655 16.1898 4.5075 16.2385L4.53524 16.2423C4.88694 16.3038 5.30312 16.3473 5.72605 16.3615L5.74179 16.3623C6.21471 16.3818 6.59165 16.3935 6.8726 16.3975C7.15356 16.4015 7.56574 16.4015 8.10915 16.3975L9 16.3795L9.8961 16.3855C10.439 16.3895 10.8512 16.3895 11.1326 16.3855C11.4141 16.3815 11.791 16.3698 12.2635 16.3503C12.7021 16.3353 13.1183 16.2918 13.5255 16.2228L13.4708 16.2303C13.7894 16.1778 14.0722 16.1028 14.3429 16.0031L14.3106 16.0136C14.693 15.8598 15.0408 15.6311 15.3334 15.3408C15.626 15.0505 15.8576 14.7046 16.0143 14.3234L16.0218 14.3031C16.1111 14.0647 16.1861 13.782 16.2348 13.491L16.2385 13.4633C16.3 13.1116 16.3435 12.6954 16.3578 12.2725L16.3585 12.2567C16.378 11.7838 16.3898 11.4068 16.3938 11.1259C16.3978 10.8449 16.3978 10.4328 16.3938 9.88935C16.3898 9.34594 16.3878 9.04724 16.3878 8.99325C16.3878 8.93926 16.3898 8.64056 16.3938 8.09715C16.3978 7.55374 16.3978 7.14156 16.3938 6.86061C16.3898 6.57965 16.378 6.20272 16.3585 5.72979C16.3435 5.29112 16.3 4.87494 16.231 4.46775L16.2385 4.5225C16.191 4.22517 16.1149 3.93312 16.0113 3.65039L16.0218 3.68264C15.8681 3.3002 15.6393 2.95243 15.349 2.65982C15.0588 2.36721 14.7128 2.13569 14.3316 1.97892L14.3114 1.97142C14.0479 1.87517 13.776 1.80387 13.4992 1.75846L13.4715 1.75471C13.0777 1.68805 12.6799 1.64821 12.2807 1.63548L12.265 1.63473C11.792 1.61523 11.4151 1.60348 11.1341 1.59948C10.8532 1.59548 10.441 1.59548 9.8976 1.59948L9.00675 1.61673ZM18 9C18 10.7887 17.98 12.0267 17.94 12.7141C17.9755 13.4107 17.8641 14.107 17.6133 14.7579C17.3624 15.4087 16.9776 15.9996 16.4838 16.4922C15.99 16.9849 15.3981 17.3682 14.7467 17.6175C14.0952 17.8668 13.3987 17.9764 12.7021 17.9393L12.7141 17.94C12.0267 17.98 10.7887 18 9 18C7.2113 18 5.97325 17.98 5.28587 17.94C4.58925 17.9755 3.89295 17.8641 3.2421 17.6133C2.59125 17.3624 2.00037 16.9776 1.50775 16.4838C1.01513 15.99 0.631763 15.3981 0.382489 14.7467C0.133215 14.0952 0.023597 13.3987 0.0607399 12.7021L0.05999 12.7141C0.0199967 12.0267 0 10.7887 0 9C0 7.2113 0.0199967 5.97325 0.05999 5.28587C0.0245445 4.58925 0.135859 3.89295 0.38672 3.2421C0.637581 2.59125 1.02239 2.00037 1.51621 1.50775C2.01004 1.01513 2.60185 0.631763 3.25331 0.382489C3.90477 0.133215 4.60134 0.023597 5.29787 0.0607399L5.28587 0.05999C5.97325 0.0199967 7.2113 0 9 0C10.7887 0 12.0267 0.0199967 12.7141 0.05999C13.4107 0.0245445 14.107 0.135859 14.7579 0.38672C15.4087 0.637581 15.9996 1.02239 16.4922 1.51621C16.9849 2.01004 17.3682 2.60185 17.6175 3.25331C17.8668 3.90477 17.9764 4.60134 17.9393 5.29787L17.94 5.28587C17.98 5.97275 18 7.2108 18 9Z" fill="#5771C3"/>
</svg>
