<svg width="20" height="18" viewBox="0 0 20 18" fill="none" xmlns="http://www.w3.org/2000/svg">
<path d="M19.0609 17.1544C17.5787 14.6485 15.2519 12.8901 12.5481 12.1444C13.8626 11.4906 14.9138 10.4228 15.5321 9.11298C16.1504 7.8032 16.2998 6.32784 15.9563 4.92481C15.6127 3.52177 14.7962 2.27283 13.6384 1.37937C12.4806 0.485906 11.049 0 9.57436 0C8.09976 0 6.66814 0.485906 5.51033 1.37937C4.35252 2.27283 3.53601 3.52177 3.19245 4.92481C2.8489 6.32784 2.99832 7.8032 3.61663 9.11298C4.23494 10.4228 5.2861 11.4906 6.60061 12.1444C3.89686 12.8892 1.56998 14.6476 0.0877973 17.1544C0.0470983 17.217 0.0197704 17.2871 0.00745781 17.3603C-0.00485481 17.4336 -0.00189761 17.5085 0.0161512 17.5806C0.0342 17.6527 0.0669675 17.7205 0.112483 17.7798C0.157998 17.8392 0.21532 17.889 0.281 17.9261C0.34668 17.9633 0.419362 17.987 0.494672 17.996C0.569982 18.0049 0.646365 17.9989 0.719224 17.9782C0.792084 17.9575 0.859915 17.9226 0.918637 17.8756C0.977359 17.8286 1.02576 17.7705 1.06092 17.7048C2.86186 14.6604 6.04373 12.8433 9.57436 12.8433C13.105 12.8433 16.2869 14.6604 18.0878 17.7048C18.123 17.7705 18.1714 17.8286 18.2301 17.8756C18.2888 17.9226 18.3566 17.9575 18.4295 17.9782C18.5024 17.9989 18.5787 18.0049 18.654 17.996C18.7294 17.987 18.802 17.9633 18.8677 17.9261C18.9334 17.889 18.9907 17.8392 19.0362 17.7798C19.0818 17.7205 19.1145 17.6527 19.1326 17.5806C19.1506 17.5085 19.1536 17.4336 19.1413 17.3603C19.129 17.2871 19.1016 17.217 19.0609 17.1544ZM4.13686 6.42262C4.13686 5.37042 4.45576 4.34184 5.05324 3.46697C5.65072 2.5921 6.49995 1.91021 7.49352 1.50755C8.48709 1.10489 9.58039 0.999538 10.6352 1.20481C11.6899 1.41009 12.6588 1.91677 13.4193 2.66079C14.1797 3.40481 14.6976 4.35275 14.9074 5.38473C15.1172 6.41672 15.0095 7.4864 14.598 8.45851C14.1864 9.43061 13.4895 10.2615 12.5953 10.8461C11.7011 11.4306 10.6498 11.7426 9.57436 11.7426C8.13278 11.7409 6.75074 11.1799 5.73139 10.1826C4.71203 9.18524 4.1386 7.83306 4.13686 6.42262Z" fill="#5771C3"/>
</svg>
