<svg width="18" height="15" viewBox="0 0 18 15" fill="none" xmlns="http://www.w3.org/2000/svg">
<path fill-rule="evenodd" clip-rule="evenodd" d="M11.5292 0.0676143C11.9553 -0.00522455 12.4317 -0.029504 12.8805 0.0466837C13.6798 0.181703 14.4205 0.552897 15.007 1.11247C15.3888 1.12085 15.7647 1.0455 16.0971 0.938331C16.4183 0.833568 16.7267 0.69286 17.0164 0.51888L17.0239 0.513857C17.1445 0.433529 17.2891 0.39736 17.4333 0.411481C17.5775 0.425603 17.7123 0.489145 17.815 0.591338C17.9177 0.693531 17.9819 0.828088 17.9967 0.972201C18.0115 1.11631 17.976 1.26111 17.8963 1.38206C17.723 1.64579 17.481 2.11631 17.2106 2.64376L17.0808 2.89577C16.926 3.19717 16.7669 3.50192 16.6187 3.76314C16.5258 3.92723 16.4261 4.09384 16.3257 4.23785V4.46725C16.336 5.83916 16.0729 7.19939 15.5519 8.46854C15.0308 9.7377 14.2622 10.8904 13.2909 11.8593C12.3195 12.8282 11.165 13.5939 9.89451 14.1118C8.62405 14.6297 7.26318 14.8894 5.89129 14.8757C3.90325 14.8775 1.95704 14.3047 0.286892 13.2263C0.167515 13.1491 0.0778757 13.0337 0.0326367 12.8989C-0.0126022 12.7641 -0.0107624 12.618 0.0378552 12.4844C0.0864727 12.3508 0.17899 12.2376 0.300272 12.1634C0.421555 12.0892 0.564423 12.0584 0.705506 12.076C1.85909 12.2139 3.02829 12.0277 4.08204 11.5385C3.56793 11.3048 3.10812 10.9665 2.73191 10.5453C2.35569 10.1241 2.07131 9.62923 1.89688 9.09209C1.86364 8.98926 1.85751 8.87959 1.87907 8.7737C1.90063 8.6678 1.94916 8.56926 2.01995 8.48761L2.02833 8.47924C1.60334 8.10061 1.26273 7.63682 1.02864 7.118C0.794539 6.59918 0.67218 6.03692 0.669505 5.46773V5.4242C0.669443 5.28635 0.714744 5.15231 0.798417 5.04277C0.88209 4.93322 0.999486 4.85425 1.13249 4.81804C0.848986 4.25236 0.701893 3.62815 0.702994 2.9954C0.702518 2.27804 0.890158 1.57309 1.24719 0.950889C1.29792 0.862564 1.36937 0.787905 1.45538 0.73335C1.54139 0.678795 1.63938 0.645982 1.7409 0.637741C1.84242 0.629501 1.94443 0.646081 2.03811 0.68605C2.1318 0.726019 2.21435 0.788179 2.27866 0.867167C3.74313 2.67134 5.84121 3.84825 8.14427 4.15747C8.12428 3.40412 8.31433 2.66007 8.69315 2.00859C9.07197 1.35711 9.62462 0.823901 10.2893 0.468646C10.6258 0.28948 11.0712 0.146314 11.53 0.0676143H11.5292ZM2.08693 6.38701C2.24951 6.84457 2.5281 7.25208 2.89543 7.56966C3.26277 7.88725 3.70626 8.10402 4.18251 8.19877C4.31972 8.22611 4.44388 8.29848 4.53527 8.40442C4.62666 8.51035 4.68005 8.64377 4.68698 8.78351C4.6939 8.92325 4.65396 9.0613 4.57349 9.17575C4.49302 9.2902 4.37663 9.37449 4.24279 9.41526C4.01507 9.48475 3.78148 9.53247 3.54454 9.5601C3.80178 9.89192 4.13007 10.1619 4.5053 10.3503C4.88054 10.5386 5.29319 10.6405 5.71296 10.6485C5.84245 10.6509 5.96801 10.6934 6.07244 10.7699C6.17688 10.8465 6.25508 10.9535 6.29634 11.0763C6.33759 11.199 6.33988 11.3315 6.30289 11.4557C6.2659 11.5798 6.19144 11.6894 6.08972 11.7695C5.2167 12.4565 4.20216 12.9411 3.11923 13.1886C4.01579 13.4756 4.9516 13.6211 5.89297 13.6198H5.9005C7.10612 13.6325 8.30219 13.4049 9.41881 12.9501C10.5354 12.4953 11.5502 11.8226 12.4039 10.9711C13.2576 10.1197 13.933 9.10672 14.3908 7.9913C14.8485 6.87588 15.0793 5.68043 15.0698 4.47478V4.02686C15.0697 3.8744 15.125 3.72709 15.2255 3.61244C15.2842 3.5463 15.3846 3.39392 15.5269 3.14359C15.6609 2.90749 15.8099 2.62283 15.9648 2.32227L15.9924 2.26701C15.5551 2.36543 15.1048 2.39285 14.6587 2.34822C14.5079 2.33179 14.3681 2.26131 14.2652 2.1498C13.8442 1.69324 13.2835 1.38935 12.6712 1.28578C12.3623 1.24209 12.0484 1.24916 11.7418 1.30671C11.443 1.35323 11.1529 1.44438 10.8812 1.57714C10.3333 1.86983 9.89817 2.3361 9.64391 2.9028C9.38966 3.46949 9.3307 4.10455 9.4763 4.70837C9.49922 4.80331 9.49967 4.9023 9.47762 4.99745C9.45557 5.0926 9.41162 5.1813 9.34927 5.25649C9.28693 5.33168 9.2079 5.39128 9.11848 5.43057C9.02905 5.46986 8.9317 5.48774 8.83415 5.4828C6.26184 5.35269 3.82992 4.27028 2.01158 2.44618C1.97625 2.62739 1.95859 2.81161 1.95884 2.99624V2.99791C1.95789 3.45901 2.07099 3.91319 2.28806 4.32C2.50512 4.72682 2.81942 5.07364 3.20296 5.32959C3.31559 5.4054 3.40061 5.51566 3.44529 5.64386C3.48997 5.77207 3.4919 5.9113 3.45078 6.04068C3.40966 6.17007 3.32772 6.28265 3.21723 6.36154C3.10674 6.44043 2.97365 6.48139 2.83792 6.47827C2.58525 6.47126 2.33381 6.44127 2.08693 6.38701Z" fill="#5771C3"/>
</svg>
