<svg width="29" height="33" viewBox="0 0 29 33" fill="none" xmlns="http://www.w3.org/2000/svg">
<path d="M10.1024 1.08544C13.2355 -0.138506 16.6423 -0.104842 19.7562 1.18083C21.4663 1.90944 23.0331 3.01512 24.3668 4.43443C23.9137 4.98614 23.4356 5.50177 22.9734 6.03802C22.0944 7.03661 21.2161 8.03177 20.3385 9.02349C19.4637 8.07133 18.4055 7.36504 17.2482 6.96099C15.7673 6.45217 14.1919 6.41733 12.6948 6.86029C11.1977 7.30325 9.83668 8.2069 8.76116 9.47208C7.82236 10.5589 7.1114 11.8729 6.68132 13.3161L1.98468 9.17817C3.66579 5.38462 6.57653 2.48285 10.1024 1.08544Z" fill="#E33629"/>
<path d="M0.738588 13.2773C0.990842 11.8536 1.40995 10.4749 1.98468 9.1781L6.68132 13.3263C6.06709 15.3852 6.06709 17.6173 6.68132 19.6762C5.11653 21.0512 3.55098 22.4331 1.98468 23.8219C0.546351 20.5639 0.107685 16.8519 0.738588 13.2773Z" fill="#F8BD00"/>
<path d="M15.001 13H28.486C28.947 15.8796 28.8223 18.8411 28.1212 21.6573C27.4761 24.247 26.2228 26.5876 24.4962 28.4275C22.9805 27.0817 21.458 25.7463 19.9423 24.4005C20.6938 23.8237 21.3352 23.0802 21.828 22.2146C22.3209 21.3489 22.6551 20.379 22.8106 19.3628H15.001C14.9987 17.2436 15.001 15.1218 15.001 13Z" fill="#587DBD"/>
<path d="M1.98242 23.8219C3.54872 22.4469 5.11427 21.065 6.67906 19.6763C7.28445 21.698 8.43584 23.4504 9.96875 24.683C10.9247 25.4522 12.0112 25.9861 13.1588 26.2505C14.2894 26.4898 15.4492 26.4898 16.5798 26.2505C17.7073 26.0336 18.7823 25.5506 19.7359 24.8325C21.2516 26.1783 22.7741 27.5138 24.2898 28.8596C22.6311 30.5759 20.6091 31.7725 18.4218 32.3323C16.0076 32.9781 13.4916 32.9472 11.0902 32.2421C9.19097 31.665 7.41692 30.6477 5.8793 29.254C4.25196 27.7835 2.92274 25.9306 1.98242 23.8219Z" fill="#5771C3"/>
</svg>
