<svg width="14" height="18" viewBox="0 0 14 18" fill="none" xmlns="http://www.w3.org/2000/svg">
<path d="M6.85714 13.7143C6.40249 13.7143 5.96645 13.5337 5.64496 13.2122C5.32347 12.8907 5.14286 12.4547 5.14286 12C5.14286 11.0486 5.90571 10.2857 6.85714 10.2857C7.3118 10.2857 7.74783 10.4663 8.06933 10.7878C8.39082 11.1093 8.57143 11.5453 8.57143 12C8.57143 12.4547 8.39082 12.8907 8.06933 13.2122C7.74783 13.5337 7.3118 13.7143 6.85714 13.7143ZM12 16.2857V7.71429H1.71429V16.2857H12ZM12 6C12.4547 6 12.8907 6.18061 13.2122 6.5021C13.5337 6.82359 13.7143 7.25963 13.7143 7.71429V16.2857C13.7143 16.7404 13.5337 17.1764 13.2122 17.4979C12.8907 17.8194 12.4547 18 12 18H1.71429C1.25963 18 0.823593 17.8194 0.502103 17.4979C0.180612 17.1764 0 16.7404 0 16.2857V7.71429C0 6.76286 0.762857 6 1.71429 6H2.57143V4.28571C2.57143 3.14907 3.02296 2.05898 3.82669 1.25526C4.63041 0.451529 5.7205 0 6.85714 0C7.41995 0 7.97725 0.110853 8.49721 0.326231C9.01718 0.541608 9.48964 0.857291 9.8876 1.25526C10.2856 1.65322 10.6012 2.12568 10.8166 2.64564C11.032 3.16561 11.1429 3.72291 11.1429 4.28571V6H12ZM6.85714 1.71429C6.17516 1.71429 5.5211 1.9852 5.03887 2.46744C4.55663 2.94968 4.28571 3.60373 4.28571 4.28571V6H9.42857V4.28571C9.42857 3.60373 9.15765 2.94968 8.67542 2.46744C8.19318 1.9852 7.53913 1.71429 6.85714 1.71429Z" fill="#5771C3"/>
</svg>
