<svg width="20" height="15" viewBox="0 0 20 15" fill="none" xmlns="http://www.w3.org/2000/svg">
<path d="M11.8 7.39009L8.65002 9.19009V5.59009L11.8 7.39009Z" fill="#5771C3" stroke="#5771C3" stroke-width="1.5" stroke-linecap="round" stroke-linejoin="round"/>
<path d="M1 8.0263V6.7528C1 4.1473 1 2.8441 1.8145 2.0062C2.6299 1.1674 3.9133 1.1314 6.4792 1.0585C7.6942 1.0243 8.9362 1 10 1C11.0629 1 12.3049 1.0243 13.5208 1.0585C16.0867 1.1314 17.3701 1.1674 18.1846 2.0062C19 2.8441 19 4.1482 19 6.7528V8.0263C19 10.6327 19 11.935 18.1855 12.7738C17.3701 13.6117 16.0876 13.6486 13.5208 13.7206C12.3058 13.7557 11.0638 13.78 10 13.78C8.82618 13.7765 7.65247 13.7567 6.4792 13.7206C3.9133 13.6486 2.6299 13.6126 1.8145 12.7738C1 11.935 1 10.6318 1 8.0272V8.0263Z" stroke="#5771C3" stroke-width="1.5"/>
</svg>
